<?xml version="1.0" encoding="UTF-8"?>
<svg width="32" height="32" viewBox="0 0 32 32" fill="none" xmlns="http://www.w3.org/2000/svg">
    <path d="M10 6C10 4.89543 10.8954 4 12 4H20C21.1046 4 22 4.89543 22 6V8H10V6Z" fill="#2C3E50"/>
    <path d="M22 8H10V12C10 13.1046 10.8954 14 12 14H20C21.1046 14 22 13.1046 22 12V8Z" fill="#E74C3C"/>
    <path d="M8 16C8 14.8954 8.89543 14 10 14H22C23.1046 14 24 14.8954 24 16V18C24 19.1046 23.1046 20 22 20H10C8.89543 20 8 19.1046 8 18V16Z" fill="#2C3E50"/>
    <path d="M16 20C16 18.8954 16.8954 18 18 18H22C23.1046 18 24 18.8954 24 20V22C24 23.1046 23.1046 24 22 24H18C16.8954 24 16 23.1046 16 22V20Z" fill="#E74C3C"/>
    <path d="M8 20C8 18.8954 8.89543 18 10 18H14C15.1046 18 16 18.8954 16 20V22C16 23.1046 15.1046 24 14 24H10C8.89543 24 8 23.1046 8 22V20Z" fill="#E74C3C"/>
</svg> 